# Aspose.3D Wavefront OBJ Exporter
# Copyright 2004-2024 Aspose Pty Ltd.
# File created: 07/17/2024 21:18:42

g obj_47813238

#
# object obj_47813238
#

v 0.016734907 0.09012892 0.06443186
v 0.017134251 -0.089271225 0.06361439
v 0.03158979 -0.00055851764 0.006214227
v -0.017053667 -0.09552478 0.022121202
v -0.017510375 -0.09790762 0.051666163
v -0.031597503 -0.001986504 0.0011529312
v -0.025980987 0.075769715 -0.005082233
v -0.031635918 -0.00057873287 0.0059730746
v 0.017033163 -0.09680226 0.030322038
v 0.031615783 -0.0018608572 0.001179706
v 0.017585102 -0.09740705 0.051984645
v 0.01855586 0.094601944 0.056617286
v -0.016804168 -0.09190612 0.006295485
v -0.016812237 -0.0875329 -0.0012064525
v 0.016230108 -0.09953752 0.05158409
v -4.1084393E-05 -0.10398972 0.0056908764
v -1.7273325E-05 -0.1037427 -0.0091993045
v -0.003616771 -0.101157814 -0.012610325
v -0.003429556 -0.10259785 -0.008964296
v -0.02527036 0.08206511 0.0051970407
v -0.028010866 0.0417843 -0.006396402
v -0.000112568945 0.09280849 0.06596215
v -0.012566711 0.093712494 0.06516847
v -0.014421957 0.09127646 0.065689735
v -0.01725466 -0.09070031 0.06308201
v -0.015471708 -0.090706326 0.0651901
v -0.01676724 0.090252206 0.0643322
v 0.016955528 -0.091602914 0.005562833
v 0.017607164 -0.09384757 0.058448486
v 0.012505684 -0.10018752 0.05689415
v 0.015550924 0.10019979 0.0546726
v 0.019268826 0.09849357 0.04494174
v 0.016218385 0.10028522 0.045869768
v 0.0019174364 -0.04551994 -0.025659434
v 0.02801508 0.04204235 -0.0063496036
v 0.003810338 -0.082966186 -0.024449335
v 0.020670876 0.09369184 0.04330829
v 0.025447942 0.081180505 0.0035006048
v -0.0036368154 -0.08358591 -0.024606258
v -0.016532693 -0.082236275 -0.0051181093
v -0.014017116 -0.10009112 0.056026947
v -0.01601313 -0.099628635 0.04930143
v -0.0032150913 -0.087765984 -0.023884393
v -0.012987929 -0.092495754 0.065711945
v -0.00050563936 -0.092945315 0.065953106
v 0.013539581 0.09267214 0.06568788
v 0.013424811 -0.09192701 0.06573131
v -0.019229222 0.09726057 0.05058843
v 0.016558219 -0.085132174 -0.0038727361
v 0.0034947696 -0.10271564 -0.008029341
v 0.023869157 0.0904014 0.0043682368
v 0.022707801 0.09373555 0.014340023
v 0.026034305 0.07529758 -0.0050308476
v 0.02481675 0.074377544 -0.0071557
v -0.0015001483 -0.04586985 -0.025924802
v -0.0008337708 0.08025997 -0.007321717
v 0.022959098 0.07790138 -0.007399039
v -0.022761129 0.080174364 -0.0069095395
v 3.1809715E-05 -0.09945143 -0.017161205
v -0.016632145 -0.098553985 0.054733936
v 0.003602126 -0.10119468 -0.012627636
v -0.0016167294 0.09747106 0.062307335
v 0.015718378 -0.091779575 0.064912535
v -0.01844868 0.09201553 0.05839317
v -0.000626994 -0.08797474 -0.024961604
v 0.0030760018 -0.087972894 -0.023978725
v 0.019802047 0.09701106 0.020913975
v 0.009941547 0.100034736 0.058340795
v 0.017129453 0.09906722 0.05430516
v -0.00031413144 0.09461535 0.0075746584
v -1.5947142E-05 0.098496065 0.027081793
v -0.00033732274 0.08656162 -0.004163281
v 0.022314286 0.088249974 -0.0019331998
v 0.022376979 0.083355196 -0.005526113
v -0.021324959 0.0909269 0.0009798021
v -0.022732778 0.085434474 -0.0041203317
v -0.024495253 0.08589235 -0.0018327292
v 0.0018427898 -0.08400231 -0.025524901
v -0.024650248 0.076668 -0.006932126
v 0.013138735 -0.09406289 0.064683184
v -0.009323869 -0.09998264 0.0584892
v -0.019066794 0.09769714 0.02462748
v -0.004494388 0.10042588 0.058119092
v -0.014623098 0.10016821 0.055734918
v 0.015804905 -0.09941626 0.054970272
v 0.02134259 0.09433313 0.008942007
v -0.00017340583 0.090995036 0.0005767836
v 0.021482904 0.091794685 0.0026841285
v 0.024515167 0.08170259 -0.0050514233
v 0.024729386 0.085740104 -0.0012316935
v -0.020657644 0.09466791 0.009537985
v 0.0011905886 -0.10030148 0.05862313
v 0.00046960157 -0.09665588 0.06307836
v 0.015396897 0.09290559 0.06455627
v -0.0008678295 -0.08254847 -0.0258702
v -0.023555784 0.09116632 0.00460792
v -0.014617026 -0.093441695 0.06450005
v -0.02302609 0.092896864 0.009876862
v -0.021822143 0.09544171 0.021756364
v -0.018192638 0.09951794 0.04381417
v -0.016045524 0.09320926 0.06361687
v -0.016994849 0.09936286 0.054114785
# 102 vertices

vn 0.96933997 0.0010380849 0.24572101
vn -0.986759 -0.1597339 -0.028136093
vn -0.9971619 0.06975634 -0.028320175
vn 0.98657084 -0.16062556 -0.029621236
vn 0.99136996 -0.12558451 0.03760457
vn 0.9725646 0.010109281 0.23241347
vn -0.98125696 -0.16693896 -0.09626105
vn -0.99109215 -0.12975617 0.02999777
vn -0.9848421 -0.16507018 -0.053270828
vn 0.30385646 -0.95259476 -0.015317304
vn -0.74591565 -0.63167447 -0.21118057
vn -0.99679494 0.07698149 0.02176426
vn -0.9925158 0.06331869 -0.10441804
vn -0.04427601 0.24116854 0.96947277
vn -0.7635332 -0.0024048598 0.6457641
vn 0.9859399 -0.16288467 -0.03729672
vn 0.9868488 -0.06505957 0.14797552
vn 0.991549 -0.115042046 0.05996651
vn 0.2033983 -0.9788295 0.022845345
vn 0.51657325 0.85492635 0.04746584
vn 0.5871314 0.0035204478 -0.809484
vn 0.9924701 0.07771693 0.09467398
vn -0.8321373 -0.11379804 -0.5427685
vn -0.9908672 -0.10289004 0.08715437
vn -0.24666952 -0.96907735 0.006565853
vn -0.7967516 -0.3750254 -0.4738595
vn -0.01903161 -2.7670058E-05 0.9998188
vn -0.019316798 -7.808371E-06 0.9998134
vn 0.020085547 -9.118513E-05 0.99979824
vn 0.015903505 0.0002253463 0.9998735
vn -0.9913482 0.07735335 0.10604325
vn 0.846324 -0.5314233 -0.036400218
vn 0.83833575 -0.11931738 -0.53193647
vn 0.7133905 -0.6853549 -0.14615914
vn 0.7529148 -0.05077944 -0.65615606
vn 0.9624395 0.23444541 0.13691528
vn 0.9867296 0.054052874 0.15311113
vn 0.98446393 0.16224055 0.06714817
vn 0.9636844 0.25820082 0.06815177
vn 0.988283 0.13579 0.069696896
vn 0.9924007 0.06329468 -0.105520904
vn 0.9971316 0.073563635 0.017806051
vn 0.99712455 0.074455164 -0.014112549
vn 0.5256713 0.030801823 -0.8501299
vn 0.011242877 0.1458457 -0.98924357
vn -0.019162465 0.1459853 -0.9891012
vn 0.29580125 0.09026803 -0.9509749
vn -0.7535214 -0.05129836 -0.6554191
vn -0.5570644 -0.5250026 -0.64346826
vn -0.82652456 -0.17573676 -0.53476524
vn -0.81525606 -0.31557077 -0.48556432
vn -0.94751364 -0.156066 -0.27903664
vn -0.93383974 -0.29264414 0.20567666
vn 0.16892791 -0.8680657 -0.46682474
vn -0.7131606 -0.6986833 0.056953218
vn -0.30450895 -0.9523703 -0.016286781
vn 0.021941757 0.6211472 0.78338665
vn -0.0055113225 0.6158096 0.7878757
vn 0.36611962 0.00041301834 0.9305677
vn 0.33619863 1.2539567E-05 0.94179106
vn -0.96975297 -7.340494E-05 0.24408881
vn -0.962126 0.00070818514 0.27260432
vn -0.98822904 0.061423082 0.14010984
vn -0.36046177 -0.53840125 -0.761703
vn 0.8292785 -0.17162077 -0.53183025
vn 0.6775713 -0.0018429838 0.7354548
vn 0.49634817 0.86708343 -0.04248392
vn 0.07553326 0.722595 0.6871326
vn 0.9049774 0.38397482 0.18324643
vn 0.012705797 0.980664 -0.19528632
vn 0.85181093 0.07131647 -0.51897204
vn 0.035195403 0.5916528 -0.8054243
vn -0.53889763 0.6432155 -0.5439331
vn 0.0777842 -0.0036362384 -0.9969635
vn -0.1987296 0.11333955 -0.9734787
vn -0.7931176 -0.6059927 -0.0611343
vn 0.28357098 -0.95890456 -0.009459065
vn -0.17847504 -0.86568886 -0.46768525
vn -0.9878678 0.15318576 -0.025523221
vn -0.20664485 -0.0014942483 0.9784149
vn -0.5011323 0.00051484397 0.8653705
vn 0.046774875 -0.44510052 0.8942582
vn -0.015249682 -0.99721515 0.073001936
vn -0.016024206 0.9807015 -0.19485356
vn -0.10471966 0.7773093 0.6203419
vn -0.016248414 0.99910897 -0.038950525
vn 0.81294256 -0.46372953 -0.35224897
vn 0.7349429 -0.6487538 -0.19742692
vn 0.35550517 -0.8898332 -0.28602967
vn 0.77974975 -0.49322867 0.38563684
vn 0.2643433 -0.96205384 0.067639604
vn 0.5420771 -0.6641415 0.514848
vn 0.47049287 -0.7118253 0.5214798
vn 0.584351 -0.80736846 -0.08179328
vn 0.8266681 -0.54897815 0.12346233
vn 0.8733146 -0.42798594 0.23270078
vn 0.013498131 0.82138455 0.57021505
vn 0.48127916 -0.003997984 -0.87655836
vn 0.026296092 0.9762623 -0.21498963
vn 0.035392955 0.9915249 -0.12500378
vn -0.025269205 0.46842718 -0.8831406
vn 0.029533012 0.7954269 -0.60532945
vn 0.009510401 0.44745862 -0.894254
vn 0.029392198 0.32746106 -0.94440746
vn 0.06289551 0.13556731 -0.9887697
vn -0.5123791 0.036184873 -0.8579966
vn -0.82575 0.07095758 -0.559555
vn 0.6711237 0.4903856 -0.5559811
vn -0.58310354 0.004632876 -0.8123847
vn -0.016299434 0.9806386 -0.19514619
vn -0.15703924 0.7987303 0.5808343
vn 0.9737115 -0.16664983 -0.15528612
vn 0.07579083 -0.76565045 0.6387763
vn -0.024274243 0.99967444 0.007858506
vn 0.02655677 0.999088 0.033434413
vn 0.7636626 0.63379526 -0.12297537
vn 0.5940102 0.7997694 0.08672301
vn 0.27753347 0.74317354 0.60882545
vn 0.34464303 0.7527382 0.5608977
vn 0.78474337 0.4636674 0.41132745
vn -0.035867892 0.6849354 -0.7277203
vn 0.9328007 0.22032464 -0.28520116
vn 0.6242288 0.72872394 -0.28160247
vn -0.011618642 0.88802326 -0.45965162
vn 0.011894392 0.88821495 -0.45927405
vn 0.12673959 0.0007082843 -0.99193573
vn -0.4126063 -0.008469067 -0.9108701
vn -0.79862624 -0.52030635 -0.3024523
vn -0.5415143 -0.8343163 0.103336975
vn -0.31929466 -0.9474299 -0.020675825
vn -0.7236558 -0.67023045 -0.16466141
vn 0.024012037 -0.6083183 0.79332983
vn -0.031555653 -0.7760329 0.6299024
vn 0.020591918 -0.9974029 0.06901835
vn -0.03112857 -0.99704736 0.070197165
vn -0.9827754 0.18463777 -0.007838455
vn 0.21612355 -0.54032385 -0.8132286
vn 0.24608456 -0.28438932 -0.92658794
vn 0.5563137 -0.52843344 -0.6413058
vn 0.7925387 -0.37877038 -0.47792822
vn 0.8803722 -0.31212905 0.3570999
vn 0.3256052 -0.4513218 0.8308369
vn 0.101104595 -0.78603685 0.60985565
vn 0.5359604 -0.15658842 -0.82959414
vn 0.58073556 0.6506763 0.4892511
vn 0.49156228 0.198884 0.8478276
vn 0.8283407 0.3807442 0.4109569
vn 0.035745963 0.92635095 -0.3749616
vn 0.65677726 0.74948806 -0.08313403
vn 0.7205307 0.6929065 -0.026762517
vn 0.57281303 0.24801838 -0.7812631
vn 0.9909515 0.13222376 -0.023068147
vn 0.9857726 0.16766524 0.01186603
vn -0.015361759 0.7305161 -0.6827226
vn 0.012853678 0.7300547 -0.68326795
vn -0.018544573 0.4491685 -0.89325464
vn -0.61920536 -0.779582 -0.0940023
vn -0.3204271 -0.88654965 -0.33370107
vn -0.09894353 -0.7155462 0.6915228
vn -0.08410995 -0.7128522 0.6962522
vn -0.60803026 -0.64489436 0.46304476
vn -0.42376122 -0.3438042 0.8379887
vn -0.6052081 0.78875744 -0.10763321
vn -0.017454129 0.9966558 -0.0798282
vn -0.019358914 0.99862695 -0.04867829
vn -0.63429385 0.6409247 -0.43230417
vn 0.037949502 -0.16338745 -0.98583186
vn 0.53878194 0.50297135 -0.67582077
vn 0.81364393 0.19121602 -0.5490173
vn 0.652479 0.6532869 -0.38404107
vn 0.7178153 0.5853499 -0.37697026
vn -0.28608516 -0.76353234 0.5789418
vn -0.03743271 -0.6181469 0.785171
vn -0.70907944 -0.37257996 0.5986571
vn -0.8784891 0.3512186 0.32388648
vn -0.8908157 0.29997253 0.34126797
vn -0.8681331 0.37252316 0.32798082
vn -0.6051629 0.7723906 -0.19284868
vn -0.9845548 0.15640245 0.07867639
vn -0.982298 0.17688628 0.061660025
vn -0.9815945 0.18732838 0.037154242
vn -0.4458897 0.8323939 -0.3290942
vn -0.36372283 0.729882 0.5787728
vn -0.575721 0.32229415 0.7514464
vn 0.4423585 0.3331644 -0.8326587
vn -0.7062503 0.35157344 -0.61449707
vn -0.65452784 0.3569314 -0.6664783
vn -0.8388436 0.27410117 -0.4703297
vn -0.3547016 0.933343 0.055296633
vn -0.5617428 0.820557 -0.10550462
vn -0.8517415 0.52214015 0.043659687
vn -0.7596177 0.6429424 0.098010525
vn -0.036033332 0.91671646 -0.39790994
vn -0.5608081 0.6682597 0.48879775
vn -0.4142336 0.48083678 0.77279145
vn -0.39032125 -0.1688709 -0.905059
vn -0.75264806 -0.5066449 0.42051375
vn -0.029743044 0.9952134 -0.093090184
vn -0.3464959 -0.19346894 -0.9178837
vn -0.6021281 0.7969434 -0.048196252
# 200 vertex normals

s 1
f 1//1 2//1 3//1
f 4//2 5//2 6//2
f 7//3 6//3 8//3
f 9//4 10//4 11//4
f 10//5 3//5 11//5
f 12//6 1//6 3//6
f 13//7 6//7 14//7
f 8//8 6//8 5//8
f 4//9 6//9 13//9
f 15//10 16//10 17//10
f 18//11 19//11 13//11
f 20//12 7//12 8//12
f 21//13 6//13 7//13
f 22//14 23//14 24//14
f 25//15 26//15 27//15
f 28//16 10//16 9//16
f 2//17 29//17 3//17
f 29//18 11//18 3//18
f 30//19 16//19 15//19
f 31//20 32//20 33//20
f 34//21 35//21 36//21
f 37//22 3//22 38//22
f 6//23 39//23 40//23
f 25//24 8//24 5//24
f 41//25 42//25 16//25
f 18//26 14//26 43//26
f 22//27 24//27 44//27
f 44//28 45//28 22//28
f 46//29 22//29 45//29
f 45//30 47//30 46//30
f 20//31 8//31 48//31
f 9//32 11//32 15//32
f 36//33 10//33 49//33
f 50//34 28//34 9//34
f 10//35 36//35 35//35
f 12//36 37//36 32//36
f 37//37 12//37 3//37
f 37//38 38//38 51//38
f 37//39 52//39 32//39
f 52//40 37//40 51//40
f 10//41 35//41 53//41
f 10//42 53//42 38//42
f 10//43 38//43 3//43
f 54//44 35//44 34//44
f 55//45 56//45 57//45
f 56//46 55//46 58//46
f 57//47 54//47 34//47
f 39//48 6//48 21//48
f 59//49 18//49 43//49
f 40//50 39//50 43//50
f 14//51 40//51 43//51
f 14//52 6//52 40//52
f 60//53 25//53 5//53
f 59//54 61//54 17//54
f 42//55 60//55 5//55
f 16//56 42//56 17//56
f 62//57 22//57 46//57
f 22//58 62//58 23//58
f 1//59 46//59 63//59
f 47//60 63//60 46//60
f 25//61 64//61 8//61
f 64//62 25//62 27//62
f 64//63 48//63 8//63
f 65//64 59//64 43//64
f 66//65 36//65 49//65
f 63//66 2//66 1//66
f 33//67 32//67 67//67
f 68//68 62//68 46//68
f 32//69 69//69 12//69
f 70//70 71//70 67//70
f 53//71 35//71 54//71
f 72//72 73//72 74//72
f 75//73 76//73 77//73
f 78//74 55//74 34//74
f 55//75 79//75 58//75
f 4//76 42//76 5//76
f 50//77 15//77 17//77
f 59//78 17//78 18//78
f 7//79 20//79 77//79
f 24//80 26//80 44//80
f 27//81 26//81 24//81
f 45//82 80//82 47//82
f 41//83 16//83 81//83
f 82//84 71//84 70//84
f 62//85 83//85 23//85
f 33//86 84//86 83//86
f 49//87 28//87 61//87
f 61//88 28//88 50//88
f 61//89 50//89 17//89
f 63//90 85//90 29//90
f 85//91 30//91 15//91
f 80//92 85//92 63//92
f 85//93 80//93 30//93
f 9//94 15//94 50//94
f 85//95 15//95 11//95
f 11//96 29//96 85//96
f 83//97 62//97 68//97
f 34//98 36//98 78//98
f 70//99 67//99 86//99
f 71//100 33//100 67//100
f 58//101 76//101 72//101
f 73//102 87//102 88//102
f 72//103 74//103 56//103
f 56//104 74//104 57//104
f 34//105 55//105 57//105
f 21//106 79//106 55//106
f 21//107 7//107 79//107
f 89//108 73//108 90//108
f 39//109 21//109 55//109
f 91//110 82//110 70//110
f 84//111 23//111 83//111
f 28//112 49//112 10//112
f 92//113 80//113 93//113
f 31//114 33//114 68//114
f 68//115 33//115 83//115
f 51//116 86//116 52//116
f 69//117 32//117 31//117
f 46//118 94//118 68//118
f 94//119 31//119 68//119
f 94//120 12//120 69//120
f 76//121 75//121 72//121
f 90//122 53//122 89//122
f 86//123 51//123 88//123
f 75//124 70//124 87//124
f 87//125 70//125 88//125
f 95//126 55//126 78//126
f 39//127 55//127 95//127
f 14//128 18//128 13//128
f 42//129 41//129 60//129
f 19//130 17//130 42//130
f 19//131 4//131 13//131
f 45//132 93//132 80//132
f 92//133 93//133 81//133
f 16//134 30//134 92//134
f 92//135 81//135 16//135
f 96//136 77//136 20//136
f 66//137 59//137 65//137
f 65//138 78//138 66//138
f 59//139 66//139 61//139
f 49//140 61//140 66//140
f 2//141 63//141 29//141
f 80//142 63//142 47//142
f 80//143 92//143 30//143
f 78//144 36//144 66//144
f 94//145 69//145 31//145
f 94//146 46//146 1//146
f 12//147 94//147 1//147
f 70//148 86//148 88//148
f 67//149 52//149 86//149
f 52//150 67//150 32//150
f 57//151 89//151 54//151
f 53//152 90//152 38//152
f 90//153 51//153 38//153
f 75//154 87//154 72//154
f 72//155 87//155 73//155
f 56//156 58//156 72//156
f 42//157 4//157 19//157
f 19//158 18//158 17//158
f 97//159 81//159 44//159
f 81//160 93//160 44//160
f 41//161 97//161 60//161
f 26//162 97//162 44//162
f 98//163 99//163 91//163
f 100//164 33//164 71//164
f 84//165 33//165 100//165
f 96//166 75//166 77//166
f 95//167 78//167 65//167
f 73//168 89//168 74//168
f 53//169 54//169 89//169
f 73//170 88//170 51//170
f 90//171 73//171 51//171
f 41//172 81//172 97//172
f 44//173 93//173 45//173
f 25//174 97//174 26//174
f 101//175 48//175 64//175
f 64//176 27//176 101//176
f 102//177 48//177 101//177
f 96//178 98//178 91//178
f 48//179 99//179 20//179
f 99//180 98//180 20//180
f 98//181 96//181 20//181
f 96//182 91//182 75//182
f 84//183 101//183 23//183
f 27//184 24//184 101//184
f 89//185 57//185 74//185
f 77//186 76//186 79//186
f 79//187 76//187 58//187
f 79//188 7//188 77//188
f 102//189 84//189 100//189
f 91//190 99//190 82//190
f 48//191 100//191 99//191
f 100//192 48//192 102//192
f 75//193 91//193 70//193
f 84//194 102//194 101//194
f 24//195 23//195 101//195
f 43//196 95//196 65//196
f 25//197 60//197 97//197
f 82//198 100//198 71//198
f 43//199 39//199 95//199
f 100//200 82//200 99//200
#200 polygons

