# Aspose.3D Wavefront OBJ Exporter
# Copyright 2004-2024 Aspose Pty Ltd.
# File created: 07/17/2024 21:22:34

g obj_1873707

#
# object obj_1873707
#

v 0.0103599625 0.026403382 0.00015462865
v 0.0104486225 0.002583305 0.00014680107
v -0.010387184 0.0025341832 0.00013169624
v -0.010479453 0.016101561 0.018988166
v -0.010401266 0.02630941 0.00016650975
v -0.01038885 0.02522027 0.01918762
v -0.008730396 -2.3525208E-05 0.036164846
v 0.01040047 0.02525341 0.01903659
v 0.005839826 0.014274294 0.05380345
v 0.008616076 0.013988716 0.051327914
v 0.010494819 0.015102643 0.01843559
v 0.008692774 -0.00013264273 0.050166227
v -0.008622936 -5.6801935E-05 0.050952822
v -0.005481417 -9.112076E-05 0.05372471
v -0.0052779196 0.014293112 0.053849034
v -0.0077783796 0.014218212 0.05236592
v -0.008841175 0.01391758 0.050589357
v 0.0061380183 -2.0602645E-05 0.05357762
# 18 vertices

vn 0.0007241645 0.00033130785 -0.99999964
vn -0.9999898 -0.000585782 -0.004471739
vn -0.9999502 0.009908747 0.0012200575
vn 0.0024030372 -0.9974795 -0.070913665
vn 0.0006682738 0.9535563 0.30121374
vn -0.00057890016 0.0014639319 -0.9999988
vn 0.998344 0.005891571 0.057222914
vn 0.9981851 -0.050838035 0.032279216
vn 0.99837106 0.00072925165 0.057049643
vn -0.87128663 -0.49074668 0.005227074
vn 0.036271185 -0.99794024 -0.05291278
vn -0.003722848 -0.9999881 -0.003160577
vn 0.99990875 0.0098419245 -0.009263132
vn 0.99999124 0.003722849 -0.0019185799
vn -0.001149495 0.9981498 0.06079262
vn 0.002845622 0.9538455 0.3002843
vn -0.21892367 0.9208734 0.32259017
vn -0.6614247 -0.035031363 0.74919295
vn -0.99816877 -0.05131227 0.032035273
vn 0.37771744 0.867563 0.32351828
vn -0.004486176 0.99835455 0.0571685
vn -0.998589 0.008776099 0.052375674
vn -0.66595083 0.6908513 0.28148547
vn 0.012750469 -0.015528837 0.9997981
vn 0.004085018 -0.008700477 0.9999538
vn 0.006542003 -0.999267 0.03771807
vn 0.79890585 -0.04500072 0.59977025
vn -0.008996091 -0.99995714 -0.0021847875
vn -0.5101437 -0.00021666178 0.8600892
vn -0.9986077 -0.014274478 0.050783593
vn 0.6656481 0.0020959615 0.7462628
vn -0.8581589 -4.907863E-05 0.5133844
# 32 vertex normals

s 1
f 1//1 2//1 3//1
f 3//2 4//2 5//2
f 5//3 4//3 6//3
f 2//4 7//4 3//4
f 8//5 6//5 9//5
f 3//6 5//6 1//6
f 10//7 11//7 8//7
f 11//8 12//8 2//8
f 10//9 12//9 11//9
f 13//10 3//10 7//10
f 2//11 12//11 7//11
f 12//12 14//12 7//12
f 8//13 11//13 2//13
f 8//14 2//14 1//14
f 8//15 1//15 6//15
f 6//16 15//16 9//16
f 16//17 15//17 6//17
f 13//18 14//18 16//18
f 3//19 13//19 4//19
f 8//20 9//20 10//20
f 1//21 5//21 6//21
f 4//22 17//22 6//22
f 17//23 16//23 6//23
f 9//24 14//24 18//24
f 15//25 14//25 9//25
f 12//26 18//26 14//26
f 18//27 12//27 10//27
f 14//28 13//28 7//28
f 16//29 14//29 15//29
f 13//30 17//30 4//30
f 18//31 10//31 9//31
f 16//32 17//32 13//32
#32 polygons

